<?xml version="1.0" standalone="no"?>
<!DOCTYPE svg PUBLIC "-//W3C//DTD SVG 20010904//EN"
 "http://www.w3.org/TR/2001/REC-SVG-20010904/DTD/svg10.dtd">
<svg version="1.0" xmlns="http://www.w3.org/2000/svg"
 width="57.000000pt" height="37.000000pt" viewBox="0 0 57.000000 37.000000"
 preserveAspectRatio="xMidYMid meet">

<g transform="translate(0.000000,37.000000) scale(0.100000,-0.100000)"
fill="#000000" stroke="none">
<path d="M240 317 c-29 -14 -50 -51 -50 -87 0 -14 -9 -31 -20 -38 -18 -11 -21
-21 -18 -85 l3 -72 105 -3 c153 -4 150 -6 150 78 0 59 -3 72 -20 82 -11 7 -20
23 -20 36 0 35 -28 82 -56 92 -33 13 -44 12 -74 -3z m74 -53 c3 -9 6 -27 6
-40 0 -21 -4 -24 -40 -24 -39 0 -40 1 -40 33 0 19 3 37 7 40 13 13 61 7 67 -9z"/>
<path d="M30 225 l-34 -35 34 -35 c19 -19 41 -35 49 -35 10 0 3 12 -19 35
l-34 35 34 35 c22 23 29 35 19 35 -8 0 -30 -16 -49 -35z"/>
<path d="M500 225 l34 -35 -34 -35 c-22 -23 -29 -35 -19 -35 8 0 30 16 49 35
l34 35 -34 35 c-19 19 -41 35 -49 35 -10 0 -3 -12 19 -35z"/>
</g>
</svg>
